{
   "accessors" : [
      {
         "bufferView" : 2,
         "byteOffset" : 0,
         "componentType" : 5126,
         "count" : 9002,
         "max" : [ 1, 1, 1, 1 ],
         "min" : [ 0.006584956776350737, 0.006584956776350737, 0.006584956776350737, 1 ],
         "name" : "accessor_color_m0-PolyPaper21_-103640",
         "type" : "VEC4"
      },
      {
         "bufferView" : 0,
         "byteOffset" : 0,
         "componentType" : 5123,
         "count" : 13164,
         "max" : [ 9001 ],
         "min" : [ 0 ],
         "name" : "accessor_indices_0_m0-PolyPaper21_-103640",
         "type" : "SCALAR"
      },
      {
         "bufferView" : 1,
         "byteOffset" : 108024,
         "componentType" : 5126,
         "count" : 9002,
         "max" : [ 0.9997354000000001, 0.9980038, 0.9997459 ],
         "min" : [ -0.9996631, -0.9995591, -0.9995843 ],
         "name" : "accessor_normal_m0-PolyPaper21_-103640",
         "type" : "VEC3"
      },
      {
         "bufferView" : 1,
         "byteOffset" : 0,
         "componentType" : 5126,
         "count" : 9002,
         "max" : [ 0.5463092000000001, 2.016342, 0.2665444 ],
         "min" : [ -0.333593, 1.2837, -0.5179878 ],
         "name" : "accessor_position_m0-PolyPaper21_-103640",
         "type" : "VEC3"
      }
   ],
   "asset" : {
      "copyright" : "Unknown",
      "extras" : {
         "GOOGLE_processor_version" : 294144208
      },
      "generator" : "glTF 1-to-2 Upgrader for Google Blocks",
      "version" : "2.0"
   },
   "bufferViews" : [
      {
         "buffer" : 0,
         "byteLength" : 26328,
         "byteOffset" : 0,
         "name" : "ushortBufferView",
         "target" : 34963
      },
      {
         "buffer" : 0,
         "byteLength" : 216048,
         "byteOffset" : 26328,
         "byteStride" : 12,
         "name" : "vec3BufferView",
         "target" : 34962
      },
      {
         "buffer" : 0,
         "byteLength" : 144032,
         "byteOffset" : 242376,
         "byteStride" : 16,
         "name" : "vec4BufferView",
         "target" : 34962
      }
   ],
   "buffers" : [
      {
         "byteLength" : 386408,
         "name" : "model",
         "uri" : "model.bin"
      }
   ],
   "cameras" : [
      {
         "perspective" : {
            "yfov" : 0.7853981633974483,
            "znear" : 0.1000000014901161
         },
         "type" : "perspective"
      }
   ],
   "extensions" : {
      "KHR_lights_punctual" : {
         "lights" : [
            {
               "color" : [ 1, 0.9333333333333333, 0.8666666666666667 ],
               "intensity" : 0.25,
               "name" : "headLight",
               "type" : "directional"
            },
            {
               "color" : [ 1, 0.9333333333333333, 0.8666666666666667 ],
               "intensity" : 0.324999988079071,
               "name" : "keyLight",
               "type" : "directional"
            }
         ]
      }
   },
   "extensionsUsed" : [ "GOOGLE_backgrounds", "GOOGLE_camera_settings", "KHR_lights_punctual" ],
   "extras" : {
      "GOOGLE_initial_camera_motion" : {
         "motionPath" : "FULL_ROTATION"
      },
      "GOOGLE_lighting_rig" : {
         "disableShadows" : false
      }
   },
   "materials" : [
      {
         "alphaMode" : "OPAQUE",
         "doubleSided" : false,
         "name" : "BlocksPaper",
         "pbrMetallicRoughness" : {
            "baseColorFactor" : [ 1, 1, 1, 1 ],
            "metallicFactor" : 0,
            "roughnessFactor" : 0.6
         }
      },
      {
         "alphaMode" : "BLEND",
         "doubleSided" : false,
         "name" : "BlocksGlass",
         "pbrMetallicRoughness" : {
            "baseColorFactor" : [ 0.2, 0.2, 1, 0.3 ],
            "metallicFactor" : 1,
            "roughnessFactor" : 0.4
         }
      },
      {
         "alphaMode" : "OPAQUE",
         "doubleSided" : true,
         "name" : "BlocksGem",
         "pbrMetallicRoughness" : {
            "baseColorFactor" : [ 1, 0.4, 1, 1 ],
            "metallicFactor" : 0,
            "roughnessFactor" : 0.1
         }
      }
   ],
   "meshes" : [
      {
         "name" : "mesh_m0-PolyPaper21_-103640",
         "primitives" : [
            {
               "attributes" : {
                  "COLOR_0" : 0,
                  "NORMAL" : 2,
                  "POSITION" : 3
               },
               "indices" : 1,
               "material" : 0,
               "mode" : 4
            }
         ]
      }
   ],
   "nodes" : [
      {
         "mesh" : 0,
         "name" : "node_MeshObject-90157888-PolyPaper21"
      },
      {
         "children" : [ 2 ]
      },
      {
         "children" : [ 3 ],
         "extras" : {
            "isTransformNode" : 1
         },
         "translation" : [ -0.006352931893135835, 1.638035635422891, -0.1206272651049597 ]
      },
      {
         "children" : [ 0 ],
         "translation" : [ 0.006352931893135835, -1.638035635422891, 0.1206272651049597 ]
      },
      {
         "camera" : 0,
         "children" : [ 5 ],
         "rotation" : [
            -0.03504323584029204,
            -0.2750820854973518,
            -0.01003379835051885,
            0.9607294836481968
         ],
         "translation" : [ -0.8828712105751038, 1.77145528793335, 1.18507707118988 ]
      },
      {
         "extensions" : {
            "KHR_lights_punctual" : {
               "light" : 0
            }
         },
         "extras" : {
            "isHeadLight" : 1
         },
         "name" : "headLightNode",
         "translation" : [ -0.7195850560306227, 0.3597925280153114, 0.3597925280153114 ]
      },
      {
         "extensions" : {
            "KHR_lights_punctual" : {
               "light" : 1
            }
         },
         "extras" : {
            "isKeyLight" : 1
         },
         "name" : "keyLightNode",
         "rotation" : [ -0.7505326882858236, -0.3752663441429118, 0, 0.5439447166468927 ],
         "scale" : [ 0, 0, 0.726780906590929 ],
         "translation" : [ -0.8091689876379748, 3.114534794760869, -0.8249555709757677 ]
      }
   ],
   "scene" : 0,
   "scenes" : [
      {
         "extensions" : {
            "GOOGLE_backgrounds" : {
               "color" : [ 0.01176470588235294, 0.6627450980392157, 0.9568627450980393 ]
            },
            "GOOGLE_camera_settings" : {}
         },
         "extras" : {
            "GOOGLE_camera_index" : {
               "cameraIndex" : 0,
               "nodeIndex" : 4
            },
            "GOOGLE_geometry_data" : {
               "stats" : {
                  "centroid" : [ -0.08238808104704581, 1.660972981579011, -0.09817466438483863 ],
                  "radius" : 0.7195850560306227,
                  "stdev" : 0.3140734899367035
               },
               "visualCenterPoint" : [ -0.006352931893135835, 1.638035635422891, -0.1206272651049597 ]
            },
            "GOOGLE_hemi_light" : {
               "groundColor" : [ 0.01176470588235294, 0.6627450980392157, 0.9568627450980393 ]
            }
         },
         "name" : "defaultScene",
         "nodes" : [ 1, 4, 6 ]
      }
   ]
}
